<svg width="1366" height="678" fill="none" xmlns="http://www.w3.org/2000/svg"><path d="M1366 264.532v213.141C626.584 536.401 505.351 17.796 0 37.377V.076C543.796-7.32 703.455 530.489 1366 264.532z" fill="url(#paint0_linear_2_3)"/><path d="M1366 477.673v199.333h-180.79C515.527 587.372 552.902 100.052 0 76.213V37.377c505.351-19.582 626.584 499.024 1366 440.296z" fill="url(#paint1_linear_2_3)"/><path d="M1185.21 677.006H645.573c-96.81-93.478-195.103-260.56-251.106-320.081C242.689 161.607 41.394 111.877 0 103.448V76.213c552.902 23.839 515.527 511.159 1185.21 600.793z" fill="url(#paint2_linear_2_3)"/><path d="M645.573 677.007h-266.37C253.038 250.742 83.53 190.67 0 131.563v-28.115c41.394 8.43 242.689 58.16 394.467 253.477 56.003 59.521 154.296 226.603 251.106 320.082z" fill="url(#paint3_linear_2_3)"/><path d="M201.795 677.007S219.319 382.54 0 169.089v-37.526c83.53 59.107 253.038 119.179 379.203 545.444H201.795z" fill="url(#paint4_linear_2_3)"/><path d="M201.795 677.007H54.502S115.058 453.541 0 230.057v-60.968C219.319 382.54 201.795 677.007 201.795 677.007z" fill="url(#paint5_linear_2_3)"/><path d="M54.502 677.007H0v-446.95c115.058 223.484 54.502 446.95 54.502 446.95z" fill="url(#paint6_linear_2_3)"/><path d="M1366 264.532v213.141C626.584 536.401 505.351 17.796 0 37.377V.076C543.796-7.32 703.455 530.489 1366 264.532z" fill="url(#paint7_linear_2_3)"/><path d="M1366 477.673v199.333h-180.79C515.527 587.372 552.902 100.052 0 76.213V37.377c505.351-19.582 626.584 499.024 1366 440.296z" fill="url(#paint8_linear_2_3)"/><path d="M1185.21 677.006H645.573c-96.81-93.478-195.103-260.56-251.106-320.081C242.689 161.607 41.394 111.877 0 103.448V76.213c552.902 23.839 515.527 511.159 1185.21 600.793z" fill="url(#paint9_linear_2_3)"/><path d="M645.573 677.007h-266.37C253.038 250.742 83.53 190.67 0 131.563v-28.115c41.394 8.43 242.689 58.16 394.467 253.477 56.003 59.521 154.296 226.603 251.106 320.082z" fill="url(#paint10_linear_2_3)"/><path d="M201.795 677.007H54.502S115.058 453.541 0 230.057v-60.968C219.319 382.54 201.795 677.007 201.795 677.007z" fill="url(#paint11_linear_2_3)"/><path d="M201.795 677.007S219.319 382.54 0 169.089v-37.526c83.53 59.107 253.038 119.179 379.203 545.444H201.795z" fill="url(#paint12_linear_2_3)"/><defs><linearGradient id="paint0_linear_2_3" x1="0" y1="241.158" x2="1366" y2="241.158" gradientUnits="userSpaceOnUse"><stop stop-color="#FDD600"/><stop offset=".25" stop-color="#C9AC2D"/><stop offset=".75" stop-color="#C9AC2D"/><stop offset="1" stop-color="#FDD600"/></linearGradient><linearGradient id="paint1_linear_2_3" x1="0" y1="356.925" x2="1366" y2="356.925" gradientUnits="userSpaceOnUse"><stop stop-color="#285BAA"/><stop offset=".25" stop-color="#008DD0"/><stop offset=".75" stop-color="#008DD0"/><stop offset="1" stop-color="#285BAA"/></linearGradient><linearGradient id="paint2_linear_2_3" x1="0" y1="263061" x2="814454" y2="263061" gradientUnits="userSpaceOnUse"><stop stop-color="#FDD600"/><stop offset=".25" stop-color="#C9AC2D"/><stop offset=".75" stop-color="#C9AC2D"/><stop offset="1" stop-color="#FDD600"/></linearGradient><linearGradient id="paint3_linear_2_3" x1="0" y1="255698" x2="241638" y2="255698" gradientUnits="userSpaceOnUse"><stop stop-color="#285BAA"/><stop offset=".25" stop-color="#008DD0"/><stop offset=".75" stop-color="#008DD0"/><stop offset="1" stop-color="#285BAA"/></linearGradient><linearGradient id="paint4_linear_2_3" x1="0" y1="247643" x2="83371.6" y2="247643" gradientUnits="userSpaceOnUse"><stop stop-color="#FDD600"/><stop offset=".25" stop-color="#C9AC2D"/><stop offset=".75" stop-color="#C9AC2D"/><stop offset="1" stop-color="#FDD600"/></linearGradient><linearGradient id="paint5_linear_2_3" x1="0" y1="236183" x2="23687.4" y2="236183" gradientUnits="userSpaceOnUse"><stop stop-color="#285BAA"/><stop offset=".25" stop-color="#008DD0"/><stop offset=".75" stop-color="#008DD0"/><stop offset="1" stop-color="#285BAA"/></linearGradient><linearGradient id="paint6_linear_2_3" x1="-266.111" y1="453.523" x2="7.382" y2="453.523" gradientUnits="userSpaceOnUse"><stop stop-color="#FEE483"/><stop offset=".31" stop-color="#C9AC2D"/><stop offset=".65" stop-color="#C9AC2D"/><stop offset="1" stop-color="#FDD600"/></linearGradient><linearGradient id="paint7_linear_2_3" x1="655.49" y1="324.932" x2="751.147" y2="25.4" gradientUnits="userSpaceOnUse"><stop stop-color="#7E6C2B"/><stop offset=".52" stop-color="#FCD602" stop-opacity="0"/></linearGradient><linearGradient id="paint8_linear_2_3" x1="629.55" y1="578.374" x2="694.191" y2="310.539" gradientUnits="userSpaceOnUse"><stop offset=".14" stop-color="#173974"/><stop offset=".85" stop-color="#173974" stop-opacity="0"/></linearGradient><linearGradient id="paint9_linear_2_3" x1="514.13" y1="589.389" x2="601.933" y2="351.031" gradientUnits="userSpaceOnUse"><stop stop-color="#7E6C2B"/><stop offset=".21" stop-color="#978123" stop-opacity=".8"/><stop offset=".67" stop-color="#D7B70E" stop-opacity=".29"/><stop offset=".91" stop-color="#FCD602" stop-opacity="0"/></linearGradient><linearGradient id="paint10_linear_2_3" x1="77798" y1="299214" x2="142835" y2="215870" gradientUnits="userSpaceOnUse"><stop offset=".14" stop-color="#173974"/><stop offset=".85" stop-color="#173974" stop-opacity="0"/></linearGradient><linearGradient id="paint11_linear_2_3" x1="-7215.98" y1="260741" x2="20170.1" y2="255147" gradientUnits="userSpaceOnUse"><stop offset=".14" stop-color="#173974"/><stop offset=".85" stop-color="#173974" stop-opacity="0"/></linearGradient><linearGradient id="paint12_linear_2_3" x1="79.356" y1="469.916" x2="205.982" y2="394.455" gradientUnits="userSpaceOnUse"><stop stop-color="#7E6C2B"/><stop offset=".24" stop-color="#978123" stop-opacity=".8"/><stop offset=".73" stop-color="#D7B70E" stop-opacity=".29"/><stop offset="1" stop-color="#FCD602" stop-opacity="0"/></linearGradient></defs></svg>