<svg width="1349" height="688" fill="none" xmlns="http://www.w3.org/2000/svg"><path d="M1349 418.567V202.278C618.786 142.683 499.062 668.948 0 649.077v37.853c537.028 7.504 694.701-538.247 1349-268.363z" fill="url(#paint0_linear_2_4)"/><path d="M1349 202.278V0h-178.54C509.111 90.96 546.021 585.476 0 609.668v39.409c499.062 19.871 618.786-506.394 1349-446.799z" fill="url(#paint1_linear_2_4)"/><path d="M1170.46 0H637.539c-95.606 94.86-192.676 264.41-247.981 324.81C239.669 523.012 40.878 573.477 0 582.031v27.637C546.021 585.476 509.111 90.959 1170.46 0z" fill="url(#paint2_linear_2_4)"/><path d="M637.539 0H374.484C249.889 432.561 82.49 493.521 0 553.501v28.529c40.879-8.553 239.669-59.018 389.558-257.22C444.863 264.41 541.933 94.86 637.539 0z" fill="url(#paint3_linear_2_4)"/><path d="M199.284 0S216.589 298.817 0 515.421v38.08c82.49-59.98 249.889-120.94 374.484-553.5h-175.2z" fill="url(#paint4_linear_2_4)"/><path d="M199.284 0H53.824S113.626 226.767 0 453.551v61.87C216.589 298.817 199.284.001 199.284.001z" fill="url(#paint5_linear_2_4)"/><path d="M53.824 0H0v453.551C113.626 226.767 53.824.001 53.824.001z" fill="url(#paint6_linear_2_4)"/><path d="M1349 418.567V202.278C618.786 142.683 499.062 668.948 0 649.077v37.853c537.028 7.504 694.701-538.247 1349-268.363z" fill="url(#paint7_linear_2_4)"/><path d="M1349 202.278V0h-178.54C509.111 90.96 546.021 585.476 0 609.668v39.409c499.062 19.871 618.786-506.394 1349-446.799z" fill="url(#paint8_linear_2_4)"/><path d="M1170.46 0H637.539c-95.606 94.86-192.676 264.41-247.981 324.81C239.669 523.012 40.878 573.477 0 582.031v27.637C546.021 585.476 509.111 90.959 1170.46 0z" fill="url(#paint9_linear_2_4)"/><path d="M637.539 0H374.484C249.889 432.561 82.49 493.521 0 553.501v28.529c40.879-8.553 239.669-59.018 389.558-257.22C444.863 264.41 541.933 94.86 637.539 0z" fill="url(#paint10_linear_2_4)"/><path d="M199.284 0H53.824S113.626 226.767 0 453.551v61.87C216.589 298.817 199.284.001 199.284.001z" fill="url(#paint11_linear_2_4)"/><path d="M199.284 0S216.589 298.817 0 515.421v38.08c82.49-59.98 249.889-120.94 374.484-553.5h-175.2z" fill="url(#paint12_linear_2_4)"/><defs><linearGradient id="paint0_linear_2_4" x1="0" y1="442.286" x2="1349" y2="442.286" gradientUnits="userSpaceOnUse"><stop stop-color="#FDD600"/><stop offset=".25" stop-color="#C9AC2D"/><stop offset=".75" stop-color="#C9AC2D"/><stop offset="1" stop-color="#FDD600"/></linearGradient><linearGradient id="paint1_linear_2_4" x1="0" y1="324.81" x2="1349" y2="324.81" gradientUnits="userSpaceOnUse"><stop stop-color="#285BAA"/><stop offset=".25" stop-color="#008DD0"/><stop offset=".75" stop-color="#008DD0"/><stop offset="1" stop-color="#285BAA"/></linearGradient><linearGradient id="paint2_linear_2_4" x1="0" y1="-266260" x2="804318" y2="-266260" gradientUnits="userSpaceOnUse"><stop stop-color="#FDD600"/><stop offset=".25" stop-color="#C9AC2D"/><stop offset=".75" stop-color="#C9AC2D"/><stop offset="1" stop-color="#FDD600"/></linearGradient><linearGradient id="paint3_linear_2_4" x1="0" y1="-258788" x2="238631" y2="-258788" gradientUnits="userSpaceOnUse"><stop stop-color="#285BAA"/><stop offset=".25" stop-color="#008DD0"/><stop offset=".75" stop-color="#008DD0"/><stop offset="1" stop-color="#285BAA"/></linearGradient><linearGradient id="paint4_linear_2_4" x1="0" y1="-250614" x2="82334" y2="-250614" gradientUnits="userSpaceOnUse"><stop stop-color="#FDD600"/><stop offset=".25" stop-color="#C9AC2D"/><stop offset=".75" stop-color="#C9AC2D"/><stop offset="1" stop-color="#FDD600"/></linearGradient><linearGradient id="paint5_linear_2_4" x1="0" y1="-238985" x2="23392.6" y2="-238985" gradientUnits="userSpaceOnUse"><stop stop-color="#285BAA"/><stop offset=".25" stop-color="#008DD0"/><stop offset=".75" stop-color="#008DD0"/><stop offset="1" stop-color="#285BAA"/></linearGradient><linearGradient id="paint6_linear_2_4" x1="-262.799" y1="226.784" x2="7.29" y2="226.784" gradientUnits="userSpaceOnUse"><stop stop-color="#FEE483"/><stop offset=".31" stop-color="#C9AC2D"/><stop offset=".65" stop-color="#C9AC2D"/><stop offset="1" stop-color="#FDD600"/></linearGradient><linearGradient id="paint7_linear_2_4" x1="647.333" y1="357.275" x2="746.564" y2="659.668" gradientUnits="userSpaceOnUse"><stop stop-color="#7E6C2B"/><stop offset=".52" stop-color="#FCD602" stop-opacity="0"/></linearGradient><linearGradient id="paint8_linear_2_4" x1="621.715" y1="100.09" x2="688.912" y2="371.048" gradientUnits="userSpaceOnUse"><stop offset=".14" stop-color="#173974"/><stop offset=".85" stop-color="#173974" stop-opacity="0"/></linearGradient><linearGradient id="paint9_linear_2_4" x1="507.732" y1="88.912" x2="598.68" y2="329.187" gradientUnits="userSpaceOnUse"><stop stop-color="#7E6C2B"/><stop offset=".21" stop-color="#978123" stop-opacity=".8"/><stop offset=".67" stop-color="#D7B70E" stop-opacity=".29"/><stop offset=".91" stop-color="#FCD602" stop-opacity="0"/></linearGradient><linearGradient id="paint10_linear_2_4" x1="76829.8" y1="-302947" x2="143241" y2="-220123" gradientUnits="userSpaceOnUse"><stop offset=".14" stop-color="#173974"/><stop offset=".85" stop-color="#173974" stop-opacity="0"/></linearGradient><linearGradient id="paint11_linear_2_4" x1="-7126.17" y1="-263906" x2="19976.6" y2="-258518" gradientUnits="userSpaceOnUse"><stop offset=".14" stop-color="#173974"/><stop offset=".85" stop-color="#173974" stop-opacity="0"/></linearGradient><linearGradient id="paint12_linear_2_4" x1="78.368" y1="210.149" x2="205.178" y2="283.693" gradientUnits="userSpaceOnUse"><stop stop-color="#7E6C2B"/><stop offset=".24" stop-color="#978123" stop-opacity=".8"/><stop offset=".73" stop-color="#D7B70E" stop-opacity=".29"/><stop offset="1" stop-color="#FCD602" stop-opacity="0"/></linearGradient></defs></svg>