<svg width="689" height="1350" fill="none" xmlns="http://www.w3.org/2000/svg"><path d="M419.564.003H203.275C143.679 730.218 669.945 849.942 650.074 1349h37.853C695.431 811.975 149.679 654.303 419.564.003z" fill="url(#paint0_linear_2_3)"/><path d="M203.275.003H.997v178.539C91.956 839.892 586.473 802.982 610.664 1349h39.41C669.945 849.942 143.68 730.218 203.275.003z" fill="url(#paint1_linear_2_3)"/><path d="M.997 178.542v532.923c94.86 95.605 264.41 192.675 324.81 247.981C524.009 1109.33 574.473 1308.12 583.027 1349h27.638C586.473 802.982 91.955 839.892.997 178.542z" fill="url(#paint2_linear_2_3)"/><path d="M.997 711.465V974.52c432.56 124.59 493.52 291.99 553.5 374.48h28.53c-8.554-40.88-59.018-239.67-257.221-389.554C265.406 904.14 95.856 807.07.996 711.465z" fill="url(#paint3_linear_2_3)"/><path d="M.997 1149.72s298.816-17.31 515.42 199.28h38.08c-59.98-82.49-120.94-249.89-553.5-374.48v175.2z" fill="url(#paint4_linear_2_3)"/><path d="M.997 1149.72v145.46s226.767-59.8 453.551 53.82h61.869C299.813 1132.41.997 1149.72.997 1149.72z" fill="url(#paint5_linear_2_3)"/><path d="M.997 1295.18V1349h453.551C227.764 1235.38.997 1295.18.997 1295.18z" fill="url(#paint6_linear_2_3)"/><path d="M419.564.003H203.275C143.679 730.218 669.945 849.942 650.074 1349h37.853C695.431 811.975 149.679 654.303 419.564.003z" fill="url(#paint7_linear_2_3)"/><path d="M203.275.003H.997v178.539C91.956 839.892 586.473 802.982 610.664 1349h39.41C669.945 849.942 143.68 730.218 203.275.003z" fill="url(#paint8_linear_2_3)"/><path d="M.997 178.542v532.923c94.86 95.605 264.41 192.675 324.81 247.981C524.009 1109.33 574.473 1308.12 583.027 1349h27.638C586.473 802.982 91.955 839.892.997 178.542z" fill="url(#paint9_linear_2_3)"/><path d="M.997 711.465V974.52c432.56 124.59 493.52 291.99 553.5 374.48h28.53c-8.554-40.88-59.018-239.67-257.221-389.554C265.406 904.14 95.856 807.07.996 711.465z" fill="url(#paint10_linear_2_3)"/><path d="M.997 1149.72v145.46s226.767-59.8 453.551 53.82h61.869C299.813 1132.41.997 1149.72.997 1149.72z" fill="url(#paint11_linear_2_3)"/><path d="M.997 1149.72s298.816-17.31 515.42 199.28h38.08c-59.98-82.49-120.94-249.89-553.5-374.48v175.2z" fill="url(#paint12_linear_2_3)"/><defs><linearGradient id="paint0_linear_2_3" x1="443.283" y1="1349" x2="443.283" y2=".003" gradientUnits="userSpaceOnUse"><stop stop-color="#FDD600"/><stop offset=".25" stop-color="#C9AC2D"/><stop offset=".75" stop-color="#C9AC2D"/><stop offset="1" stop-color="#FDD600"/></linearGradient><linearGradient id="paint1_linear_2_3" x1="325.807" y1="1349" x2="325.807" y2=".003" gradientUnits="userSpaceOnUse"><stop stop-color="#285BAA"/><stop offset=".25" stop-color="#008DD0"/><stop offset=".75" stop-color="#008DD0"/><stop offset="1" stop-color="#285BAA"/></linearGradient><linearGradient id="paint2_linear_2_3" x1="-266259" y1="1349" x2="-266259" y2="-802969" gradientUnits="userSpaceOnUse"><stop stop-color="#FDD600"/><stop offset=".25" stop-color="#C9AC2D"/><stop offset=".75" stop-color="#C9AC2D"/><stop offset="1" stop-color="#FDD600"/></linearGradient><linearGradient id="paint3_linear_2_3" x1="-258787" y1="1349" x2="-258787" y2="-237282" gradientUnits="userSpaceOnUse"><stop stop-color="#285BAA"/><stop offset=".25" stop-color="#008DD0"/><stop offset=".75" stop-color="#008DD0"/><stop offset="1" stop-color="#285BAA"/></linearGradient><linearGradient id="paint4_linear_2_3" x1="-250613" y1="1349" x2="-250613" y2="-80985" gradientUnits="userSpaceOnUse"><stop stop-color="#FDD600"/><stop offset=".25" stop-color="#C9AC2D"/><stop offset=".75" stop-color="#C9AC2D"/><stop offset="1" stop-color="#FDD600"/></linearGradient><linearGradient id="paint5_linear_2_3" x1="-238984" y1="1349" x2="-238984" y2="-22043.6" gradientUnits="userSpaceOnUse"><stop stop-color="#285BAA"/><stop offset=".25" stop-color="#008DD0"/><stop offset=".75" stop-color="#008DD0"/><stop offset="1" stop-color="#285BAA"/></linearGradient><linearGradient id="paint6_linear_2_3" x1="227.781" y1="1611.8" x2="227.781" y2="1341.71" gradientUnits="userSpaceOnUse"><stop stop-color="#FEE483"/><stop offset=".31" stop-color="#C9AC2D"/><stop offset=".65" stop-color="#C9AC2D"/><stop offset="1" stop-color="#FDD600"/></linearGradient><linearGradient id="paint7_linear_2_3" x1="358.272" y1="701.671" x2="660.665" y2="602.439" gradientUnits="userSpaceOnUse"><stop stop-color="#7E6C2B"/><stop offset=".52" stop-color="#FCD602" stop-opacity="0"/></linearGradient><linearGradient id="paint8_linear_2_3" x1="101.086" y1="727.288" x2="372.044" y2="660.091" gradientUnits="userSpaceOnUse"><stop offset=".14" stop-color="#173974"/><stop offset=".85" stop-color="#173974" stop-opacity="0"/></linearGradient><linearGradient id="paint9_linear_2_3" x1="89.909" y1="841.272" x2="330.184" y2="750.324" gradientUnits="userSpaceOnUse"><stop stop-color="#7E6C2B"/><stop offset=".21" stop-color="#978123" stop-opacity=".8"/><stop offset=".67" stop-color="#D7B70E" stop-opacity=".29"/><stop offset=".91" stop-color="#FCD602" stop-opacity="0"/></linearGradient><linearGradient id="paint10_linear_2_3" x1="-302946" y1="-75480.8" x2="-220122" y2="-141892" gradientUnits="userSpaceOnUse"><stop offset=".14" stop-color="#173974"/><stop offset=".85" stop-color="#173974" stop-opacity="0"/></linearGradient><linearGradient id="paint11_linear_2_3" x1="-263905" y1="8475.18" x2="-258517" y2="-18627.6" gradientUnits="userSpaceOnUse"><stop offset=".14" stop-color="#173974"/><stop offset=".85" stop-color="#173974" stop-opacity="0"/></linearGradient><linearGradient id="paint12_linear_2_3" x1="211.146" y1="1270.64" x2="284.69" y2="1143.83" gradientUnits="userSpaceOnUse"><stop stop-color="#7E6C2B"/><stop offset=".24" stop-color="#978123" stop-opacity=".8"/><stop offset=".73" stop-color="#D7B70E" stop-opacity=".29"/><stop offset="1" stop-color="#FCD602" stop-opacity="0"/></linearGradient></defs></svg>