<svg width="1366" height="1366" fill="none" xmlns="http://www.w3.org/2000/svg"><path d="M419.026 0H202.737c-59.595 739.416 466.67 860.649 446.799 1366h37.853C694.893 822.204 149.142 662.545 419.026 0z" fill="url(#paint0_linear_2_3)"/><path d="M202.737 0H.459v180.788C91.418 850.473 585.935 813.098 610.127 1366h39.409C669.407 860.649 143.142 739.416 202.737 0z" fill="url(#paint1_linear_2_3)"/><path d="M.46 180.788v539.639c94.859 96.81 264.409 195.103 324.809 251.106C523.471 1123.31 573.936 1324.61 582.489 1366h27.638C585.935 813.098 91.418 850.473.459 180.788z" fill="url(#paint2_linear_2_3)"/><path d="M.46 720.427v266.37C433.02 1112.96 493.98 1282.47 553.96 1366h28.529c-8.553-41.39-59.018-242.69-257.22-394.467-60.4-56.003-229.95-154.296-324.81-251.106z" fill="url(#paint3_linear_2_3)"/><path d="M.46 1164.2s298.816-17.52 515.42 201.8h38.08c-59.98-83.53-120.94-253.04-553.5-379.203V1164.2z" fill="url(#paint4_linear_2_3)"/><path d="M.46 1164.2v147.3s226.766-60.56 453.55 54.5h61.87C299.276 1146.68.46 1164.2.46 1164.2z" fill="url(#paint5_linear_2_3)"/><path d="M.46 1311.5v54.5h453.55C227.226 1250.94.46 1311.5.46 1311.5z" fill="url(#paint6_linear_2_3)"/><path d="M419.026 0H202.737c-59.595 739.416 466.67 860.649 446.799 1366h37.853C694.893 822.204 149.142 662.545 419.026 0z" fill="url(#paint7_linear_2_3)"/><path d="M202.737 0H.459v180.788C91.418 850.473 585.935 813.098 610.127 1366h39.409C669.407 860.649 143.142 739.416 202.737 0z" fill="url(#paint8_linear_2_3)"/><path d="M.46 180.788v539.639c94.859 96.81 264.409 195.103 324.809 251.106C523.471 1123.31 573.936 1324.61 582.489 1366h27.638C585.935 813.098 91.418 850.473.459 180.788z" fill="url(#paint9_linear_2_3)"/><path d="M.46 720.427v266.37C433.02 1112.96 493.98 1282.47 553.96 1366h28.529c-8.553-41.39-59.018-242.69-257.22-394.467-60.4-56.003-229.95-154.296-324.81-251.106z" fill="url(#paint10_linear_2_3)"/><path d="M.46 1164.2v147.3s226.766-60.56 453.55 54.5h61.87C299.276 1146.68.46 1164.2.46 1164.2z" fill="url(#paint11_linear_2_3)"/><path d="M.46 1164.2s298.816-17.52 515.42 201.8h38.08c-59.98-83.53-120.94-253.04-553.5-379.203V1164.2z" fill="url(#paint12_linear_2_3)"/><path d="M952.531 0h213.139c58.73 739.416-459.875 860.649-440.294 1366h-37.301C680.68 822.204 1218.49 662.545 952.531 0z" fill="url(#paint13_linear_2_3)"/><path d="M1165.67 0h199.34v180.788C1275.37 850.473 788.052 813.098 764.212 1366h-38.836C705.795 860.649 1224.4 739.416 1165.67 0z" fill="url(#paint14_linear_2_3)"/><path d="M1365.01 180.788v539.639c-93.48 96.81-260.57 195.103-320.09 251.106C849.606 1123.31 799.876 1324.61 791.447 1366h-27.235c23.84-552.902 511.158-515.527 600.798-1185.212z" fill="url(#paint15_linear_2_3)"/><path d="M1365.01 720.427v266.37C938.741 1112.96 878.669 1282.47 819.562 1366h-28.114c8.429-41.39 58.159-242.69 253.472-394.467 59.52-56.003 226.61-154.296 320.09-251.106z" fill="url(#paint16_linear_2_3)"/><path d="M1365.01 1164.2s-294.47-17.52-507.922 201.8h-37.526c59.107-83.53 119.179-253.04 545.448-379.203V1164.2z" fill="url(#paint17_linear_2_3)"/><path d="M1365.01 1164.2v147.3s-223.47-60.56-446.954 54.5h-60.968c213.452-219.32 507.922-201.8 507.922-201.8z" fill="url(#paint18_linear_2_3)"/><path d="M1365.01 1311.5v54.5H918.056c223.484-115.06 446.954-54.5 446.954-54.5z" fill="url(#paint19_linear_2_3)"/><path d="M952.531 0h213.139c58.73 739.416-459.875 860.649-440.294 1366h-37.301C680.68 822.204 1218.49 662.545 952.531 0z" fill="url(#paint20_linear_2_3)"/><path d="M1165.67 0h199.34v180.788C1275.37 850.473 788.052 813.098 764.212 1366h-38.836C705.795 860.649 1224.4 739.416 1165.67 0z" fill="url(#paint21_linear_2_3)"/><path d="M1365.01 180.788v539.639c-93.48 96.81-260.57 195.103-320.09 251.106C849.606 1123.31 799.876 1324.61 791.447 1366h-27.235c23.84-552.902 511.158-515.527 600.798-1185.212z" fill="url(#paint22_linear_2_3)"/><path d="M1365.01 720.427v266.37C938.741 1112.96 878.669 1282.47 819.562 1366h-28.114c8.429-41.39 58.159-242.69 253.472-394.467 59.52-56.003 226.61-154.296 320.09-251.106z" fill="url(#paint23_linear_2_3)"/><path d="M1365.01 1164.2v147.3s-223.47-60.56-446.954 54.5h-60.968c213.452-219.32 507.922-201.8 507.922-201.8z" fill="url(#paint24_linear_2_3)"/><path d="M1365.01 1164.2s-294.47-17.52-507.922 201.8h-37.526c59.107-83.53 119.179-253.04 545.448-379.203V1164.2z" fill="url(#paint25_linear_2_3)"/><defs><linearGradient id="paint0_linear_2_3" x1="442.745" y1="1366" x2="442.745" y2="0" gradientUnits="userSpaceOnUse"><stop stop-color="#FDD600"/><stop offset=".25" stop-color="#C9AC2D"/><stop offset=".75" stop-color="#C9AC2D"/><stop offset="1" stop-color="#FDD600"/></linearGradient><linearGradient id="paint1_linear_2_3" x1="325.269" y1="1366" x2="325.269" y2="0" gradientUnits="userSpaceOnUse"><stop stop-color="#285BAA"/><stop offset=".25" stop-color="#008DD0"/><stop offset=".75" stop-color="#008DD0"/><stop offset="1" stop-color="#285BAA"/></linearGradient><linearGradient id="paint2_linear_2_3" x1="-266260" y1="1366" x2="-266260" y2="-813088" gradientUnits="userSpaceOnUse"><stop stop-color="#FDD600"/><stop offset=".25" stop-color="#C9AC2D"/><stop offset=".75" stop-color="#C9AC2D"/><stop offset="1" stop-color="#FDD600"/></linearGradient><linearGradient id="paint3_linear_2_3" x1="-258788" y1="1366" x2="-258788" y2="-240272" gradientUnits="userSpaceOnUse"><stop stop-color="#285BAA"/><stop offset=".25" stop-color="#008DD0"/><stop offset=".75" stop-color="#008DD0"/><stop offset="1" stop-color="#285BAA"/></linearGradient><linearGradient id="paint4_linear_2_3" x1="-250614" y1="1366" x2="-250614" y2="-82005.6" gradientUnits="userSpaceOnUse"><stop stop-color="#FDD600"/><stop offset=".25" stop-color="#C9AC2D"/><stop offset=".75" stop-color="#C9AC2D"/><stop offset="1" stop-color="#FDD600"/></linearGradient><linearGradient id="paint5_linear_2_3" x1="-238985" y1="1366" x2="-238985" y2="-22321.4" gradientUnits="userSpaceOnUse"><stop stop-color="#285BAA"/><stop offset=".25" stop-color="#008DD0"/><stop offset=".75" stop-color="#008DD0"/><stop offset="1" stop-color="#285BAA"/></linearGradient><linearGradient id="paint6_linear_2_3" x1="227.243" y1="1632.11" x2="227.243" y2="1358.62" gradientUnits="userSpaceOnUse"><stop stop-color="#FEE483"/><stop offset=".31" stop-color="#C9AC2D"/><stop offset=".65" stop-color="#C9AC2D"/><stop offset="1" stop-color="#FDD600"/></linearGradient><linearGradient id="paint7_linear_2_3" x1="357.734" y1="710.51" x2="660.856" y2="612.277" gradientUnits="userSpaceOnUse"><stop stop-color="#7E6C2B"/><stop offset=".52" stop-color="#FCD602" stop-opacity="0"/></linearGradient><linearGradient id="paint8_linear_2_3" x1="100.549" y1="736.45" x2="371.896" y2="669.994" gradientUnits="userSpaceOnUse"><stop offset=".14" stop-color="#173974"/><stop offset=".85" stop-color="#173974" stop-opacity="0"/></linearGradient><linearGradient id="paint9_linear_2_3" x1="89.371" y1="851.87" x2="330.393" y2="761.774" gradientUnits="userSpaceOnUse"><stop stop-color="#7E6C2B"/><stop offset=".21" stop-color="#978123" stop-opacity=".8"/><stop offset=".67" stop-color="#D7B70E" stop-opacity=".29"/><stop offset=".91" stop-color="#FCD602" stop-opacity="0"/></linearGradient><linearGradient id="paint10_linear_2_3" x1="-302946" y1="-76432" x2="-219313" y2="-142658" gradientUnits="userSpaceOnUse"><stop offset=".14" stop-color="#173974"/><stop offset=".85" stop-color="#173974" stop-opacity="0"/></linearGradient><linearGradient id="paint11_linear_2_3" x1="-263905" y1="8581.98" x2="-258386" y2="-18835.9" gradientUnits="userSpaceOnUse"><stop offset=".14" stop-color="#173974"/><stop offset=".85" stop-color="#173974" stop-opacity="0"/></linearGradient><linearGradient id="paint12_linear_2_3" x1="210.608" y1="1286.64" x2="285.539" y2="1159.05" gradientUnits="userSpaceOnUse"><stop stop-color="#7E6C2B"/><stop offset=".24" stop-color="#978123" stop-opacity=".8"/><stop offset=".73" stop-color="#D7B70E" stop-opacity=".29"/><stop offset="1" stop-color="#FCD602" stop-opacity="0"/></linearGradient><linearGradient id="paint13_linear_2_3" x1="929.157" y1="1366" x2="929.157" y2="0" gradientUnits="userSpaceOnUse"><stop stop-color="#FDD600"/><stop offset=".25" stop-color="#C9AC2D"/><stop offset=".75" stop-color="#C9AC2D"/><stop offset="1" stop-color="#FDD600"/></linearGradient><linearGradient id="paint14_linear_2_3" x1="1044.92" y1="1366" x2="1044.92" y2="0" gradientUnits="userSpaceOnUse"><stop stop-color="#285BAA"/><stop offset=".25" stop-color="#008DD0"/><stop offset=".75" stop-color="#008DD0"/><stop offset="1" stop-color="#285BAA"/></linearGradient><linearGradient id="paint15_linear_2_3" x1="263749" y1="1366" x2="263749" y2="-813088" gradientUnits="userSpaceOnUse"><stop stop-color="#FDD600"/><stop offset=".25" stop-color="#C9AC2D"/><stop offset=".75" stop-color="#C9AC2D"/><stop offset="1" stop-color="#FDD600"/></linearGradient><linearGradient id="paint16_linear_2_3" x1="256386" y1="1366" x2="256386" y2="-240272" gradientUnits="userSpaceOnUse"><stop stop-color="#285BAA"/><stop offset=".25" stop-color="#008DD0"/><stop offset=".75" stop-color="#008DD0"/><stop offset="1" stop-color="#285BAA"/></linearGradient><linearGradient id="paint17_linear_2_3" x1="248331" y1="1366" x2="248331" y2="-82005.6" gradientUnits="userSpaceOnUse"><stop stop-color="#FDD600"/><stop offset=".25" stop-color="#C9AC2D"/><stop offset=".75" stop-color="#C9AC2D"/><stop offset="1" stop-color="#FDD600"/></linearGradient><linearGradient id="paint18_linear_2_3" x1="236871" y1="1366" x2="236871" y2="-22321.4" gradientUnits="userSpaceOnUse"><stop stop-color="#285BAA"/><stop offset=".25" stop-color="#008DD0"/><stop offset=".75" stop-color="#008DD0"/><stop offset="1" stop-color="#285BAA"/></linearGradient><linearGradient id="paint19_linear_2_3" x1="1141.52" y1="1632.11" x2="1141.52" y2="1358.62" gradientUnits="userSpaceOnUse"><stop stop-color="#FEE483"/><stop offset=".31" stop-color="#C9AC2D"/><stop offset=".65" stop-color="#C9AC2D"/><stop offset="1" stop-color="#FDD600"/></linearGradient><linearGradient id="paint20_linear_2_3" x1="1012.93" y1="710.51" x2="713.399" y2="614.853" gradientUnits="userSpaceOnUse"><stop stop-color="#7E6C2B"/><stop offset=".52" stop-color="#FCD602" stop-opacity="0"/></linearGradient><linearGradient id="paint21_linear_2_3" x1="1266.37" y1="736.45" x2="998.538" y2="671.809" gradientUnits="userSpaceOnUse"><stop offset=".14" stop-color="#173974"/><stop offset=".85" stop-color="#173974" stop-opacity="0"/></linearGradient><linearGradient id="paint22_linear_2_3" x1="1277.39" y1="851.87" x2="1039.03" y2="764.067" gradientUnits="userSpaceOnUse"><stop stop-color="#7E6C2B"/><stop offset=".21" stop-color="#978123" stop-opacity=".8"/><stop offset=".67" stop-color="#D7B70E" stop-opacity=".29"/><stop offset=".91" stop-color="#FCD602" stop-opacity="0"/></linearGradient><linearGradient id="paint23_linear_2_3" x1="299902" y1="-76432" x2="216558" y2="-141469" gradientUnits="userSpaceOnUse"><stop offset=".14" stop-color="#173974"/><stop offset=".85" stop-color="#173974" stop-opacity="0"/></linearGradient><linearGradient id="paint24_linear_2_3" x1="261429" y1="8581.98" x2="255835" y2="-18804.1" gradientUnits="userSpaceOnUse"><stop offset=".14" stop-color="#173974"/><stop offset=".85" stop-color="#173974" stop-opacity="0"/></linearGradient><linearGradient id="paint25_linear_2_3" x1="1157.92" y1="1286.64" x2="1082.45" y2="1160.02" gradientUnits="userSpaceOnUse"><stop stop-color="#7E6C2B"/><stop offset=".24" stop-color="#978123" stop-opacity=".8"/><stop offset=".73" stop-color="#D7B70E" stop-opacity=".29"/><stop offset="1" stop-color="#FCD602" stop-opacity="0"/></linearGradient></defs></svg>