<svg width="678" height="1349" fill="none" xmlns="http://www.w3.org/2000/svg"><path d="M264.532 0h213.141C536.401 730.214 17.796 849.938 37.377 1349H.076C-7.32 811.972 530.489 654.299 264.532 0z" fill="url(#paint0_linear_2_3)"/><path d="M477.673 0h199.333v178.538C587.372 839.889 100.052 802.979 76.213 1349H37.377C17.795 849.938 536.401 730.214 477.673 0z" fill="url(#paint1_linear_2_3)"/><path d="M677.006 178.538v532.923c-93.478 95.606-260.56 192.676-320.081 247.981C161.607 1109.33 111.877 1308.12 103.448 1349H76.213c23.839-546.021 511.159-509.111 600.793-1170.462z" fill="url(#paint2_linear_2_3)"/><path d="M677.007 711.461v263.055C250.742 1099.11 190.67 1266.51 131.563 1349h-28.115c8.43-40.88 58.16-239.67 253.477-389.558 59.521-55.305 226.603-152.375 320.082-247.981z" fill="url(#paint3_linear_2_3)"/><path d="M677.007 1149.72S382.54 1132.41 169.089 1349h-37.526c59.107-82.49 119.179-249.89 545.444-374.484v175.204z" fill="url(#paint4_linear_2_3)"/><path d="M677.007 1149.72v145.46s-223.466-59.81-446.95 53.82h-60.968c213.451-216.59 507.918-199.28 507.918-199.28z" fill="url(#paint5_linear_2_3)"/><path d="M677.007 1295.18V1349h-446.95c223.484-113.63 446.95-53.82 446.95-53.82z" fill="url(#paint6_linear_2_3)"/><path d="M264.532 0h213.141C536.401 730.214 17.796 849.938 37.377 1349H.076C-7.32 811.972 530.489 654.299 264.532 0z" fill="url(#paint7_linear_2_3)"/><path d="M477.673 0h199.333v178.538C587.372 839.889 100.052 802.979 76.213 1349H37.377C17.795 849.938 536.401 730.214 477.673 0z" fill="url(#paint8_linear_2_3)"/><path d="M677.006 178.538v532.923c-93.478 95.606-260.56 192.676-320.081 247.981C161.607 1109.33 111.877 1308.12 103.448 1349H76.213c23.839-546.021 511.159-509.111 600.793-1170.462z" fill="url(#paint9_linear_2_3)"/><path d="M677.007 711.461v263.055C250.742 1099.11 190.67 1266.51 131.563 1349h-28.115c8.43-40.88 58.16-239.67 253.477-389.558 59.521-55.305 226.603-152.375 320.082-247.981z" fill="url(#paint10_linear_2_3)"/><path d="M677.007 1149.72v145.46s-223.466-59.81-446.95 53.82h-60.968c213.451-216.59 507.918-199.28 507.918-199.28z" fill="url(#paint11_linear_2_3)"/><path d="M677.007 1149.72S382.54 1132.41 169.089 1349h-37.526c59.107-82.49 119.179-249.89 545.444-374.484v175.204z" fill="url(#paint12_linear_2_3)"/><defs><linearGradient id="paint0_linear_2_3" x1="241.158" y1="1349" x2="241.158" y2="0" gradientUnits="userSpaceOnUse"><stop stop-color="#FDD600"/><stop offset=".25" stop-color="#C9AC2D"/><stop offset=".75" stop-color="#C9AC2D"/><stop offset="1" stop-color="#FDD600"/></linearGradient><linearGradient id="paint1_linear_2_3" x1="356.925" y1="1349" x2="356.925" y2="0" gradientUnits="userSpaceOnUse"><stop stop-color="#285BAA"/><stop offset=".25" stop-color="#008DD0"/><stop offset=".75" stop-color="#008DD0"/><stop offset="1" stop-color="#285BAA"/></linearGradient><linearGradient id="paint2_linear_2_3" x1="263061" y1="1349" x2="263061" y2="-802969" gradientUnits="userSpaceOnUse"><stop stop-color="#FDD600"/><stop offset=".25" stop-color="#C9AC2D"/><stop offset=".75" stop-color="#C9AC2D"/><stop offset="1" stop-color="#FDD600"/></linearGradient><linearGradient id="paint3_linear_2_3" x1="255698" y1="1349" x2="255698" y2="-237282" gradientUnits="userSpaceOnUse"><stop stop-color="#285BAA"/><stop offset=".25" stop-color="#008DD0"/><stop offset=".75" stop-color="#008DD0"/><stop offset="1" stop-color="#285BAA"/></linearGradient><linearGradient id="paint4_linear_2_3" x1="247643" y1="1349" x2="247643" y2="-80985" gradientUnits="userSpaceOnUse"><stop stop-color="#FDD600"/><stop offset=".25" stop-color="#C9AC2D"/><stop offset=".75" stop-color="#C9AC2D"/><stop offset="1" stop-color="#FDD600"/></linearGradient><linearGradient id="paint5_linear_2_3" x1="236183" y1="1349" x2="236183" y2="-22043.6" gradientUnits="userSpaceOnUse"><stop stop-color="#285BAA"/><stop offset=".25" stop-color="#008DD0"/><stop offset=".75" stop-color="#008DD0"/><stop offset="1" stop-color="#285BAA"/></linearGradient><linearGradient id="paint6_linear_2_3" x1="453.523" y1="1611.8" x2="453.523" y2="1341.71" gradientUnits="userSpaceOnUse"><stop stop-color="#FEE483"/><stop offset=".31" stop-color="#C9AC2D"/><stop offset=".65" stop-color="#C9AC2D"/><stop offset="1" stop-color="#FDD600"/></linearGradient><linearGradient id="paint7_linear_2_3" x1="324.932" y1="701.667" x2="26.101" y2="605.032" gradientUnits="userSpaceOnUse"><stop stop-color="#7E6C2B"/><stop offset=".52" stop-color="#FCD602" stop-opacity="0"/></linearGradient><linearGradient id="paint8_linear_2_3" x1="578.374" y1="727.285" x2="310.912" y2="661.92" gradientUnits="userSpaceOnUse"><stop offset=".14" stop-color="#173974"/><stop offset=".85" stop-color="#173974" stop-opacity="0"/></linearGradient><linearGradient id="paint9_linear_2_3" x1="589.389" y1="841.268" x2="351.751" y2="752.628" gradientUnits="userSpaceOnUse"><stop stop-color="#7E6C2B"/><stop offset=".21" stop-color="#978123" stop-opacity=".8"/><stop offset=".67" stop-color="#D7B70E" stop-opacity=".29"/><stop offset=".91" stop-color="#FCD602" stop-opacity="0"/></linearGradient><linearGradient id="paint10_linear_2_3" x1="299214" y1="-75480.8" x2="216662" y2="-140711" gradientUnits="userSpaceOnUse"><stop offset=".14" stop-color="#173974"/><stop offset=".85" stop-color="#173974" stop-opacity="0"/></linearGradient><linearGradient id="paint11_linear_2_3" x1="260741" y1="8475.17" x2="255280" y2="-18597" gradientUnits="userSpaceOnUse"><stop offset=".14" stop-color="#173974"/><stop offset=".85" stop-color="#173974" stop-opacity="0"/></linearGradient><linearGradient id="paint12_linear_2_3" x1="469.916" y1="1270.63" x2="395.841" y2="1144.77" gradientUnits="userSpaceOnUse"><stop stop-color="#7E6C2B"/><stop offset=".24" stop-color="#978123" stop-opacity=".8"/><stop offset=".73" stop-color="#D7B70E" stop-opacity=".29"/><stop offset="1" stop-color="#FCD602" stop-opacity="0"/></linearGradient></defs></svg>