<svg width="335" height="253" fill="none" xmlns="http://www.w3.org/2000/svg"><path d="M208.964 62.103c0-1.602-.267-3.03-.801-4.284-.534-1.255-1.415-2.376-2.642-3.364-1.202-1.014-2.83-1.948-4.885-2.802-2.029-.881-4.565-1.749-7.608-2.603-2.909-.827-5.538-1.735-7.887-2.723-2.349-.987-4.365-2.122-6.046-3.403-1.655-1.281-2.923-2.776-3.804-4.484-.881-1.735-1.321-3.75-1.321-6.046 0-2.242.48-4.284 1.441-6.126.961-1.842 2.309-3.43 4.044-4.765 1.762-1.334 3.83-2.362 6.206-3.083 2.402-.72 5.032-1.08 7.888-1.08 4.084 0 7.607.773 10.57 2.321 2.99 1.549 5.299 3.644 6.927 6.287 1.655 2.615 2.482 5.552 2.482 8.808h-4.924c0-2.536-.601-4.791-1.802-6.767-1.175-2.002-2.883-3.563-5.125-4.684-2.216-1.148-4.925-1.722-8.128-1.722-3.203 0-5.899.494-8.088 1.482-2.162.96-3.804 2.255-4.925 3.883-1.094 1.602-1.641 3.39-1.641 5.366 0 1.388.266 2.669.8 3.843.534 1.148 1.402 2.23 2.603 3.244 1.228.987 2.843 1.921 4.845 2.802 2.002.854 4.471 1.669 7.407 2.443 3.096.854 5.846 1.801 8.248 2.843 2.402 1.04 4.431 2.242 6.086 3.603 1.655 1.335 2.909 2.896 3.763 4.685.855 1.788 1.282 3.87 1.282 6.246 0 2.375-.507 4.51-1.522 6.406-.987 1.868-2.389 3.457-4.204 4.765-1.788 1.307-3.91 2.308-6.366 3.002-2.429.695-5.085 1.041-7.968 1.041-2.589 0-5.165-.333-7.727-1-2.563-.668-4.912-1.695-7.047-3.083a16.282 16.282 0 01-5.085-5.446c-1.255-2.215-1.882-4.858-1.882-7.927h4.885c0 2.455.494 4.524 1.481 6.206a11.98 11.98 0 003.924 4.084 18.255 18.255 0 005.445 2.282c2.002.454 4.004.68 6.006.68 3.07 0 5.726-.453 7.968-1.36 2.269-.908 4.017-2.176 5.245-3.805 1.255-1.654 1.882-3.576 1.882-5.765zm30.87-28.989v3.924h-21.701v-3.923h21.701zm-13.733-11.13h4.764v43.922c0 2.002.267 3.51.801 4.525.534 1.014 1.228 1.695 2.082 2.042a7.27 7.27 0 002.763.52c.72 0 1.414-.04 2.082-.12a48.042 48.042 0 001.802-.32l.2 4.044c-.588.187-1.348.334-2.283.44-.934.134-1.868.2-2.802.2-1.842 0-3.47-.333-4.885-1-1.415-.694-2.522-1.869-3.323-3.524-.801-1.681-1.201-3.964-1.201-6.846V21.983zm20.339 33.472v-1.321c0-3.15.454-6.06 1.362-8.728.907-2.67 2.202-4.979 3.884-6.927a17.697 17.697 0 016.126-4.525c2.375-1.094 5.018-1.641 7.927-1.641 2.936 0 5.592.547 7.968 1.641a17.697 17.697 0 016.126 4.525c1.708 1.948 3.016 4.257 3.924 6.927.907 2.669 1.361 5.578 1.361 8.728v1.321c0 3.15-.454 6.06-1.361 8.729-.908 2.642-2.216 4.938-3.924 6.886a17.747 17.747 0 01-6.086 4.565c-2.376 1.068-5.018 1.602-7.928 1.602-2.936 0-5.592-.534-7.967-1.602a18.148 18.148 0 01-6.126-4.564c-1.709-1.949-3.017-4.245-3.924-6.887-.908-2.67-1.362-5.579-1.362-8.729zm4.765-1.321v1.321c0 2.376.32 4.631.961 6.767.641 2.109 1.575 3.99 2.803 5.645a13.227 13.227 0 004.564 3.844c1.815.934 3.911 1.401 6.286 1.401 2.349 0 4.418-.467 6.206-1.4a13.23 13.23 0 004.565-3.845c1.228-1.654 2.149-3.536 2.763-5.645.64-2.136.96-4.391.96-6.767v-1.321c0-2.349-.32-4.578-.96-6.686-.614-2.11-1.549-3.991-2.803-5.646a13.458 13.458 0 00-4.565-3.924c-1.815-.96-3.897-1.441-6.246-1.441-2.349 0-4.431.48-6.246 1.441a13.973 13.973 0 00-4.564 3.924c-1.228 1.655-2.162 3.537-2.803 5.646-.614 2.108-.921 4.337-.921 6.686zm48.567-12.692v51.65h-4.804V33.114h4.484l.32 8.329zm30.11 12.932v.841c0 3.23-.374 6.193-1.121 8.889-.748 2.696-1.829 5.031-3.243 7.007-1.388 1.948-3.11 3.456-5.165 4.524-2.056 1.068-4.391 1.602-7.007 1.602-2.589 0-4.898-.4-6.927-1.202-2.029-.8-3.777-1.935-5.245-3.403-1.442-1.495-2.603-3.23-3.484-5.205-.854-2.002-1.454-4.19-1.801-6.566V49.77c.4-2.616 1.054-4.992 1.962-7.127.907-2.136 2.068-3.977 3.483-5.526a14.654 14.654 0 015.125-3.563c1.975-.828 4.231-1.241 6.767-1.241 2.642 0 4.991.52 7.046 1.561 2.082 1.015 3.831 2.496 5.246 4.445 1.441 1.922 2.522 4.244 3.243 6.966.747 2.696 1.121 5.726 1.121 9.09zm-4.805.841v-.84c0-2.537-.267-4.886-.801-7.048-.507-2.162-1.294-4.044-2.362-5.645-1.041-1.628-2.376-2.896-4.004-3.804-1.601-.907-3.51-1.361-5.725-1.361-2.296 0-4.258.387-5.886 1.161-1.602.747-2.936 1.748-4.004 3.003a14.875 14.875 0 00-2.523 4.044 23.805 23.805 0 00-1.361 4.324v12.773a18.648 18.648 0 002.443 5.645c1.121 1.708 2.615 3.083 4.484 4.124 1.895 1.014 4.204 1.522 6.927 1.522 2.188 0 4.084-.454 5.685-1.362 1.602-.907 2.923-2.175 3.964-3.803 1.068-1.629 1.855-3.524 2.362-5.686.534-2.162.801-4.511.801-7.047zm-97.011 130.769v-40.781c0-2.871-.439-5.332-1.318-7.383-.879-2.05-2.256-3.662-4.131-4.834-1.875-1.172-4.306-1.758-7.295-1.758-2.519 0-4.717.44-6.592 1.319-1.816.879-3.222 2.139-4.218 3.779-.938 1.641-1.407 3.662-1.407 6.065h-27.421c0-4.278.966-8.262 2.9-11.954 1.934-3.691 4.687-6.943 8.262-9.755 3.633-2.813 7.968-4.981 13.008-6.504 5.039-1.582 10.693-2.373 16.962-2.373 7.442 0 14.063 1.259 19.864 3.779 5.859 2.461 10.488 6.182 13.886 11.162 3.399 4.922 5.098 11.133 5.098 18.633v39.814c0 5.743.322 10.254.967 13.535.703 3.223 1.699 6.036 2.988 8.438v1.494h-27.685c-1.289-2.754-2.256-6.152-2.901-10.195a80.348 80.348 0 01-.967-12.481zm3.428-35.332l.176 15.118h-13.623c-3.047 0-5.684.38-7.91 1.142-2.168.762-3.926 1.816-5.274 3.164a11.937 11.937 0 00-2.988 4.57c-.586 1.7-.879 3.575-.879 5.625 0 1.934.469 3.692 1.406 5.274.938 1.523 2.227 2.725 3.868 3.603 1.64.879 3.544 1.319 5.712 1.319 3.575 0 6.622-.703 9.141-2.11 2.578-1.406 4.57-3.105 5.977-5.097 1.406-2.051 2.109-3.955 2.109-5.713l6.592 11.426c-1.055 2.343-2.344 4.775-3.867 7.295-1.524 2.46-3.457 4.775-5.801 6.943-2.344 2.109-5.186 3.838-8.526 5.185-3.281 1.348-7.236 2.022-11.865 2.022-5.976 0-11.396-1.201-16.26-3.604-4.863-2.461-8.759-5.83-11.689-10.107-2.871-4.277-4.307-9.199-4.307-14.766 0-4.98.909-9.404 2.725-13.271 1.816-3.867 4.541-7.149 8.174-9.844 3.691-2.695 8.32-4.717 13.886-6.064 5.567-1.407 12.071-2.11 19.512-2.11h13.711zm69.697-14.941v72.949H273.77v-95.098h25.751l1.67 22.149zm28.389-22.852l-.439 25.577c-1.172-.176-2.696-.323-4.571-.44-1.875-.176-3.486-.264-4.834-.264-3.515 0-6.562.44-9.14 1.319-2.52.82-4.629 2.051-6.328 3.691-1.641 1.641-2.872 3.692-3.692 6.153-.82 2.402-1.23 5.185-1.23 8.349l-5.186-2.549c0-6.269.615-12.011 1.846-17.226 1.23-5.215 3.017-9.727 5.361-13.535 2.344-3.868 5.215-6.856 8.613-8.965 3.399-2.11 7.266-3.164 11.602-3.164 1.406 0 2.842.088 4.307.263 1.465.176 2.695.44 3.691.791zm-176.645 89.026a129.559 129.559 0 01-44.802-21.418c-13.08 14.186-25.162 36.664-25.81 66.786H71.176c-.356-12.398-2.362-24.357-6.808-35.858a101.034 101.034 0 00-18.928-31.005A129.37 129.37 0 01.564 201.895V6.325c37.021 23.88 65.699 86.78 31.358 147.165l14.534 11.282c1.389-1.287 2.97-2.707 4.48-4.191a122.065 122.065 0 0018.38-23.353c.694-1.132.823-2.007.175-3.281a121.958 121.958 0 01-10.97-32.104 131.236 131.236 0 01-2.072-34.318 128.316 128.316 0 0113.064-48.237c2.143-4.32 4.613-8.463 7.104-12.989A127.856 127.856 0 0188.24 28.666a125.874 125.874 0 018.523 34.377 130.1 130.1 0 01-1.325 36.295 135.292 135.292 0 01-11.417 34.853c-.326.682-.399 1.832-.047 2.445a116.378 116.378 0 0022.821 27.934c.098.065.207.11.322.133 4.806-3.723 9.578-7.429 14.426-11.191-16.227-29.024-19.948-59.627-9.719-91.537 7.404-23.083 21.308-41.61 41.111-56.13v196.041zm-11.61-15.85V32.273c-11.391 11.582-20.347 31.606-23.083 55.641-2.915 25.627 4.643 48.778 19.67 69.454-3.815 2.308-7.622 4.423-11.215 6.864-3.593 2.44-6.937 5.147-10.568 7.871a118.412 118.412 0 0025.196 13.933zM12.135 32.35v153.7a117.575 117.575 0 0025.562-14.212l-21.913-14.752C48.261 113.1 37.221 60.41 12.136 32.351zm87.063 140.774a132.264 132.264 0 01-22.294-25.944c-3.61 4.667-6.92 9.313-10.615 13.628-3.696 4.316-7.777 8.301-11.778 12.522 9.861 11.187 17.188 23.923 22.247 38.568a113.436 113.436 0 0122.44-38.774zM76.745 31.565c-12.218 30.165-12.218 60.296 0 90.392 12.182-30.133 12.182-60.264 0-90.392z" fill="#fff"/></svg>