<?xml version="1.0" encoding="utf-8"?><svg viewBox="0 0 1367 768" xmlns="http://www.w3.org/2000/svg" xmlns:xlink="http://www.w3.org/1999/xlink"><style>:root>svg{display:none}:root>svg:target{display:block}</style><svg fill="none" viewBox="0 0 1367 768" id="bg-login" xmlns="http://www.w3.org/2000/svg"><path d="M1366.73 120.294v-216.29C627.316-155.59 506.083 370.676.732 350.805v37.853c543.796 7.504 703.456-538.248 1365.998-268.363z" fill="url(#apaint0_linear_2_3)"/><path d="M1366.73-95.995v-202.278h-180.79C516.259-207.314 553.635 287.203.732 311.394v39.41c505.351 19.871 626.584-506.395 1365.998-446.8z" fill="url(#apaint1_linear_2_3)"/><path d="M1185.94-298.273H646.305c-96.81 94.859-195.103 264.41-251.106 324.81C243.422 224.739 42.126 275.203.732 283.757v27.638C553.635 287.203 516.26-207.314 1185.94-298.273z" fill="url(#apaint2_linear_2_3)"/><path d="M646.305-298.273h-266.37C253.77 134.287 84.262 195.247.732 255.227v28.53c41.394-8.554 242.69-59.018 394.467-257.22 56.003-60.4 154.296-229.951 251.106-324.81z" fill="url(#apaint3_linear_2_3)"/><path d="M202.528-298.273S220.051.543.732 217.147v38.08c83.53-59.98 253.038-120.94 379.203-553.5H202.528z" fill="url(#apaint4_linear_2_3)"/><path d="M202.528-298.273H55.234S115.79-71.506.732 155.278v61.869C220.051.543 202.528-298.273 202.528-298.273z" fill="url(#apaint5_linear_2_3)"/><path d="M55.234-298.273H.732v453.551C115.79-71.507 55.234-298.273 55.234-298.273z" fill="url(#apaint6_linear_2_3)"/><path d="M1366.73 120.294v-216.29C627.316-155.59 506.083 370.676.732 350.805v37.853c543.796 7.504 703.456-538.248 1365.998-268.363z" fill="url(#apaint7_linear_2_3)"/><path d="M1366.73-95.995v-202.278h-180.79C516.259-207.314 553.635 287.203.732 311.394v39.41c505.351 19.871 626.584-506.395 1365.998-446.8z" fill="url(#apaint8_linear_2_3)"/><path d="M1185.94-298.273H646.305c-96.81 94.859-195.103 264.41-251.106 324.81C243.422 224.739 42.126 275.203.732 283.757v27.638C553.635 287.203 516.26-207.314 1185.94-298.273z" fill="url(#apaint9_linear_2_3)"/><path d="M646.305-298.273h-266.37C253.77 134.287 84.262 195.247.732 255.227v28.53c41.394-8.554 242.69-59.018 394.467-257.22 56.003-60.4 154.296-229.951 251.106-324.81z" fill="url(#apaint10_linear_2_3)"/><path d="M202.528-298.273H55.234S115.79-71.506.732 155.278v61.869C220.051.543 202.528-298.273 202.528-298.273z" fill="url(#apaint11_linear_2_3)"/><path d="M202.528-298.273S220.051.543.732 217.147v38.08c83.53-59.98 253.038-120.94 379.203-553.5H202.528z" fill="url(#apaint12_linear_2_3)"/><path d="M1366.73 653.799V866.94C627.316 925.668 506.083 407.062.732 426.644v-37.302c543.796-7.395 703.456 530.413 1365.998 264.457z" fill="url(#apaint13_linear_2_3)"/><path d="M1366.73 866.939v199.331h-180.79C516.259 976.638 553.635 489.319.732 465.48v-38.836c505.351-19.582 626.584 499.023 1365.998 440.295z" fill="url(#apaint14_linear_2_3)"/><path d="M1185.94 1066.27H646.305c-96.81-93.476-195.103-260.558-251.106-320.079C243.422 550.874 42.126 501.144.732 492.715V465.48c552.903 23.839 515.527 511.158 1185.208 600.79z" fill="url(#apaint15_linear_2_3)"/><path d="M646.305 1066.27h-266.37C253.77 640.009 84.262 579.936.732 520.829v-28.114c41.394 8.429 242.69 58.159 394.467 253.476 56.003 59.521 154.296 226.604 251.106 320.079z" fill="url(#apaint16_linear_2_3)"/><path d="M202.528 1066.27S220.051 771.806.732 558.355v-37.526c83.53 59.107 253.038 119.18 379.203 545.441H202.528z" fill="url(#apaint17_linear_2_3)"/><path d="M202.528 1066.27H55.234S115.79 842.807.732 619.324v-60.969c219.319 213.451 201.796 507.915 201.796 507.915z" fill="url(#apaint18_linear_2_3)"/><path d="M55.234 1066.27H.732V619.324C115.79 842.807 55.234 1066.27 55.234 1066.27z" fill="url(#apaint19_linear_2_3)"/><path d="M1366.73 653.799V866.94C627.316 925.668 506.083 407.062.732 426.644v-37.302c543.796-7.395 703.456 530.413 1365.998 264.457z" fill="url(#apaint20_linear_2_3)"/><path d="M1366.73 866.939v199.331h-180.79C516.259 976.638 553.635 489.319.732 465.48v-38.836c505.351-19.582 626.584 499.023 1365.998 440.295z" fill="url(#apaint21_linear_2_3)"/><path d="M1185.94 1066.27H646.305c-96.81-93.476-195.103-260.558-251.106-320.079C243.422 550.874 42.126 501.144.732 492.715V465.48c552.903 23.839 515.527 511.158 1185.208 600.79z" fill="url(#apaint22_linear_2_3)"/><path d="M646.305 1066.27h-266.37C253.77 640.009 84.262 579.936.732 520.829v-28.114c41.394 8.429 242.69 58.159 394.467 253.476 56.003 59.521 154.296 226.604 251.106 320.079z" fill="url(#apaint23_linear_2_3)"/><path d="M202.528 1066.27H55.234S115.79 842.807.732 619.324v-60.969c219.319 213.451 201.796 507.915 201.796 507.915z" fill="url(#apaint24_linear_2_3)"/><path d="M202.528 1066.27S220.051 771.806.732 558.355v-37.526c83.53 59.107 253.038 119.18 379.203 545.441H202.528z" fill="url(#apaint25_linear_2_3)"/><defs><linearGradient id="apaint0_linear_2_3" x1=".732" y1="144.013" x2="1366.73" y2="144.013" gradientUnits="userSpaceOnUse"><stop stop-color="#FDD600"/><stop offset=".25" stop-color="#C9AC2D"/><stop offset=".75" stop-color="#C9AC2D"/><stop offset="1" stop-color="#FDD600"/></linearGradient><linearGradient id="apaint1_linear_2_3" x1=".732" y1="26.537" x2="1366.73" y2="26.537" gradientUnits="userSpaceOnUse"><stop stop-color="#285BAA"/><stop offset=".25" stop-color="#008DD0"/><stop offset=".75" stop-color="#008DD0"/><stop offset="1" stop-color="#285BAA"/></linearGradient><linearGradient id="apaint2_linear_2_3" x1=".732" y1="-266558" x2="814455" y2="-266558" gradientUnits="userSpaceOnUse"><stop stop-color="#FDD600"/><stop offset=".25" stop-color="#C9AC2D"/><stop offset=".75" stop-color="#C9AC2D"/><stop offset="1" stop-color="#FDD600"/></linearGradient><linearGradient id="apaint3_linear_2_3" x1=".732" y1="-259086" x2="241639" y2="-259086" gradientUnits="userSpaceOnUse"><stop stop-color="#285BAA"/><stop offset=".25" stop-color="#008DD0"/><stop offset=".75" stop-color="#008DD0"/><stop offset="1" stop-color="#285BAA"/></linearGradient><linearGradient id="apaint4_linear_2_3" x1=".732" y1="-250912" x2="83372.3" y2="-250912" gradientUnits="userSpaceOnUse"><stop stop-color="#FDD600"/><stop offset=".25" stop-color="#C9AC2D"/><stop offset=".75" stop-color="#C9AC2D"/><stop offset="1" stop-color="#FDD600"/></linearGradient><linearGradient id="apaint5_linear_2_3" x1=".732" y1="-239283" x2="23688.1" y2="-239283" gradientUnits="userSpaceOnUse"><stop stop-color="#285BAA"/><stop offset=".25" stop-color="#008DD0"/><stop offset=".75" stop-color="#008DD0"/><stop offset="1" stop-color="#285BAA"/></linearGradient><linearGradient id="apaint6_linear_2_3" x1="-265.379" y1="-71.489" x2="8.114" y2="-71.489" gradientUnits="userSpaceOnUse"><stop stop-color="#FEE483"/><stop offset=".31" stop-color="#C9AC2D"/><stop offset=".65" stop-color="#C9AC2D"/><stop offset="1" stop-color="#FDD600"/></linearGradient><linearGradient id="apaint7_linear_2_3" x1="656.223" y1="59.002" x2="754.456" y2="362.124" gradientUnits="userSpaceOnUse"><stop stop-color="#7E6C2B"/><stop offset=".52" stop-color="#FCD602" stop-opacity="0"/></linearGradient><linearGradient id="apaint8_linear_2_3" x1="630.283" y1="-198.184" x2="696.739" y2="73.163" gradientUnits="userSpaceOnUse"><stop offset=".14" stop-color="#173974"/><stop offset=".85" stop-color="#173974" stop-opacity="0"/></linearGradient><linearGradient id="apaint9_linear_2_3" x1="514.862" y1="-209.361" x2="604.958" y2="31.661" gradientUnits="userSpaceOnUse"><stop stop-color="#7E6C2B"/><stop offset=".21" stop-color="#978123" stop-opacity=".8"/><stop offset=".67" stop-color="#D7B70E" stop-opacity=".29"/><stop offset=".91" stop-color="#FCD602" stop-opacity="0"/></linearGradient><linearGradient id="apaint10_linear_2_3" x1="77798.7" y1="-303245" x2="144025" y2="-219612" gradientUnits="userSpaceOnUse"><stop offset=".14" stop-color="#173974"/><stop offset=".85" stop-color="#173974" stop-opacity="0"/></linearGradient><linearGradient id="apaint11_linear_2_3" x1="-7215.24" y1="-264204" x2="20202.6" y2="-258685" gradientUnits="userSpaceOnUse"><stop offset=".14" stop-color="#173974"/><stop offset=".85" stop-color="#173974" stop-opacity="0"/></linearGradient><linearGradient id="apaint12_linear_2_3" x1="80.088" y1="-88.124" x2="207.681" y2="-13.194" gradientUnits="userSpaceOnUse"><stop stop-color="#7E6C2B"/><stop offset=".24" stop-color="#978123" stop-opacity=".8"/><stop offset=".73" stop-color="#D7B70E" stop-opacity=".29"/><stop offset="1" stop-color="#FCD602" stop-opacity="0"/></linearGradient><linearGradient id="apaint13_linear_2_3" x1=".732" y1="630.425" x2="1366.73" y2="630.425" gradientUnits="userSpaceOnUse"><stop stop-color="#FDD600"/><stop offset=".25" stop-color="#C9AC2D"/><stop offset=".75" stop-color="#C9AC2D"/><stop offset="1" stop-color="#FDD600"/></linearGradient><linearGradient id="apaint14_linear_2_3" x1=".732" y1="746.191" x2="1366.73" y2="746.191" gradientUnits="userSpaceOnUse"><stop stop-color="#285BAA"/><stop offset=".25" stop-color="#008DD0"/><stop offset=".75" stop-color="#008DD0"/><stop offset="1" stop-color="#285BAA"/></linearGradient><linearGradient id="apaint15_linear_2_3" x1=".732" y1="263451" x2="814455" y2="263451" gradientUnits="userSpaceOnUse"><stop stop-color="#FDD600"/><stop offset=".25" stop-color="#C9AC2D"/><stop offset=".75" stop-color="#C9AC2D"/><stop offset="1" stop-color="#FDD600"/></linearGradient><linearGradient id="apaint16_linear_2_3" x1=".732" y1="256087" x2="241639" y2="256087" gradientUnits="userSpaceOnUse"><stop stop-color="#285BAA"/><stop offset=".25" stop-color="#008DD0"/><stop offset=".75" stop-color="#008DD0"/><stop offset="1" stop-color="#285BAA"/></linearGradient><linearGradient id="apaint17_linear_2_3" x1=".732" y1="248032" x2="83372.3" y2="248032" gradientUnits="userSpaceOnUse"><stop stop-color="#FDD600"/><stop offset=".25" stop-color="#C9AC2D"/><stop offset=".75" stop-color="#C9AC2D"/><stop offset="1" stop-color="#FDD600"/></linearGradient><linearGradient id="apaint18_linear_2_3" x1=".732" y1="236573" x2="23688.1" y2="236573" gradientUnits="userSpaceOnUse"><stop stop-color="#285BAA"/><stop offset=".25" stop-color="#008DD0"/><stop offset=".75" stop-color="#008DD0"/><stop offset="1" stop-color="#285BAA"/></linearGradient><linearGradient id="apaint19_linear_2_3" x1="-265.379" y1="842.79" x2="8.114" y2="842.79" gradientUnits="userSpaceOnUse"><stop stop-color="#FEE483"/><stop offset=".31" stop-color="#C9AC2D"/><stop offset=".65" stop-color="#C9AC2D"/><stop offset="1" stop-color="#FDD600"/></linearGradient><linearGradient id="apaint20_linear_2_3" x1="656.223" y1="714.199" x2="751.879" y2="414.666" gradientUnits="userSpaceOnUse"><stop stop-color="#7E6C2B"/><stop offset=".52" stop-color="#FCD602" stop-opacity="0"/></linearGradient><linearGradient id="apaint21_linear_2_3" x1="630.283" y1="967.64" x2="694.924" y2="699.805" gradientUnits="userSpaceOnUse"><stop offset=".14" stop-color="#173974"/><stop offset=".85" stop-color="#173974" stop-opacity="0"/></linearGradient><linearGradient id="apaint22_linear_2_3" x1="514.862" y1="978.655" x2="602.665" y2="740.297" gradientUnits="userSpaceOnUse"><stop stop-color="#7E6C2B"/><stop offset=".21" stop-color="#978123" stop-opacity=".8"/><stop offset=".67" stop-color="#D7B70E" stop-opacity=".29"/><stop offset=".91" stop-color="#FCD602" stop-opacity="0"/></linearGradient><linearGradient id="apaint23_linear_2_3" x1="77798.7" y1="299603" x2="142835" y2="216259" gradientUnits="userSpaceOnUse"><stop offset=".14" stop-color="#173974"/><stop offset=".85" stop-color="#173974" stop-opacity="0"/></linearGradient><linearGradient id="apaint24_linear_2_3" x1="-7215.24" y1="261130" x2="20170.9" y2="255536" gradientUnits="userSpaceOnUse"><stop offset=".14" stop-color="#173974"/><stop offset=".85" stop-color="#173974" stop-opacity="0"/></linearGradient><linearGradient id="apaint25_linear_2_3" x1="80.088" y1="859.183" x2="206.715" y2="783.721" gradientUnits="userSpaceOnUse"><stop stop-color="#7E6C2B"/><stop offset=".24" stop-color="#978123" stop-opacity=".8"/><stop offset=".73" stop-color="#D7B70E" stop-opacity=".29"/><stop offset="1" stop-color="#FCD602" stop-opacity="0"/></linearGradient></defs></svg><svg viewBox="0 0 502.664 502.664" id="icon" xmlns="http://www.w3.org/2000/svg"><g fill="#010002"><path d="M153.821 358.226L0 274.337v-46.463l153.821-83.414v54.574L46.636 250.523l107.185 53.431v54.272zM180.094 387.584L282.103 115.08h32.227L212.084 387.584h-31.99zM348.843 358.226v-54.272l107.164-52.999-107.164-52.59v-53.927l153.821 83.522v46.183l-153.821 84.083z"/></g></svg></svg>